<svg width="91" height="91" viewBox="0 0 91 91" fill="none" xmlns="http://www.w3.org/2000/svg">
<path d="M73.5756 79.6887C73.7745 78.9612 74.2406 78.4083 74.7881 77.933C78.6167 74.6161 81.678 70.6779 84.122 66.2654C86.465 62.0347 88.0543 57.5024 88.8265 52.7382C89.36 49.4402 89.5651 46.1112 89.3483 42.7332C89.0316 37.8075 87.9903 33.102 86.1236 28.5445C84.1239 23.6688 81.3187 19.3319 77.7602 15.4563C75.0559 12.5114 72.0193 9.96852 68.6189 7.88497C63.897 4.99049 58.8219 3.01945 53.3453 2.0121C49.6101 1.32915 45.8015 1.13821 42.0167 1.44417C36.1429 1.90977 30.5426 3.49572 25.2784 6.30096C20.1922 9.01162 15.8325 12.5162 12.0743 16.871C9.73365 19.5836 7.80626 22.5494 6.18927 25.7048C4.38265 29.2342 3.17694 32.9983 2.40337 36.904C1.88442 39.5259 1.64289 42.1798 1.58614 44.8269C1.53147 47.4793 1.74433 50.1305 2.22149 52.7402C3.0586 57.3195 4.51942 61.7175 6.73199 65.8201C8.28657 68.7021 10.1546 71.4036 12.3022 73.8755C15.1322 77.141 18.3536 79.9026 21.9891 82.2316C26.6383 85.2109 31.6348 87.2523 37.0629 88.2776C40.0486 88.8416 43.0342 89.2835 46.0839 89.0919" stroke="black" stroke-width="2" stroke-linecap="round" stroke-linejoin="round"/>
<path d="M55.8692 29.0989C56.266 28.2012 56.1263 27.3001 55.7465 26.4654C54.922 24.6524 54.0262 22.9055 52.9093 21.2119C51.9364 19.736 50.9543 18.2359 49.9149 16.7925C49.1874 15.7823 48.3459 14.8487 47.503 13.931C46.6392 12.9896 44.6202 12.9431 43.6778 13.9393C41.8455 15.8759 40.0786 17.9299 38.7856 20.2336C37.8093 21.9733 36.4576 23.5093 35.8271 25.4634C35.475 26.5536 35.009 27.5974 35.088 28.7706C35.1307 29.4059 34.5584 29.7779 34.506 30.4196C34.2053 34.206 35.4324 37.4036 38.175 39.9741C40.1868 41.8602 42.6157 42.871 45.53 42.8467V75.7297" stroke="black" stroke-width="2" stroke-linecap="round" stroke-linejoin="round"/>
<path d="M57.849 43.8359C58.2142 44.4863 58.334 45.1784 58.2952 45.9258C58.1376 48.863 58.5018 51.788 58.5406 54.7232C58.5629 56.4207 59.7817 57.5154 61.4787 57.6885C64.2946 57.9761 67.1222 57.9426 69.9459 57.8971C70.8227 57.8759 71.6914 58.0703 72.4756 58.4631" stroke="black" stroke-width="2" stroke-linecap="round" stroke-linejoin="round"/>
<path d="M33.214 43.8359C32.8483 44.4863 32.729 45.1784 32.7673 45.9258C32.9249 48.863 32.6029 51.7904 32.5248 54.7227C32.4807 56.4154 31.2842 57.5086 29.5828 57.69C26.8401 57.981 24.0858 57.9325 21.3349 57.9C20.3881 57.8833 19.4494 58.0756 18.5854 58.4631" stroke="black" stroke-width="2" stroke-linecap="round" stroke-linejoin="round"/>
<path d="M55.4294 60.9927C60.0286 65.6288 67.8342 65.0104 71.8514 59.9441C72.787 58.7641 73.8671 57.5021 74.3637 55.9394C74.8061 54.547 75.6427 53.2477 75.6301 51.7549C75.6218 50.8013 76.1922 50.0918 76.327 49.2251C76.6272 47.2914 76.9284 45.3659 77.0438 43.3997C77.1074 42.3109 77.1345 41.388 76.5714 40.4116C76.0913 39.5789 75.3866 39.3315 74.5645 39.2239C73.126 39.0357 71.7059 39.38 70.2781 39.4664C69.1202 39.5345 67.9762 39.7548 66.8758 40.1216C64.7035 40.8578 62.3372 40.8515 60.259 41.9481C59.4258 42.388 58.5203 42.7033 57.9824 43.521C57.8974 43.6559 57.7717 43.7602 57.6235 43.8188C54.2896 44.8858 53.1509 47.7958 52.4243 50.6728C51.4616 54.4844 52.4374 58.0216 55.3193 60.8816" stroke="black" stroke-width="2" stroke-linecap="round" stroke-linejoin="round"/>
<path d="M35.7432 60.8825C39.8264 56.9894 39.9928 50.3318 36.3082 45.9129C35.509 44.9531 34.795 44.0079 33.4366 43.8139C32.9603 43.7469 32.9031 43.0718 32.4486 42.8361C30.3321 41.7424 28.2408 40.5905 25.7348 40.7506C25.6167 40.7556 25.5009 40.7167 25.4098 40.6415C24.5683 39.8524 23.4247 39.817 22.43 39.7117C20.6782 39.5264 18.938 39.1297 17.1566 39.2097C15.5983 39.281 14.4954 40.0008 13.9784 41.4199C13.862 41.734 13.8247 42.072 13.8697 42.404C14.2335 44.6316 14.184 46.9145 14.7355 49.1149C14.7524 49.1843 14.717 49.2687 14.7403 49.3332C15.6191 51.7582 15.7181 54.4208 17.0431 56.7052C17.3491 57.2334 17.5654 57.8066 18.1373 58.1486C18.3138 58.2543 18.5156 58.3804 18.6053 58.6767C19.3221 61.0416 21.2897 62.1154 23.319 63.0747C27.4565 65.0307 32.5442 64.1786 35.6331 60.9921" stroke="black" stroke-width="2" stroke-linecap="round" stroke-linejoin="round"/>
<path d="M45.6411 37.1269C46.6596 37.0206 47.4545 36.5492 48.1835 35.8174C50.0522 33.9472 51.9777 32.1314 53.8934 30.3097C54.4356 29.7937 54.9953 29.2825 55.8053 29.0851C56.7792 30.1443 56.7932 31.3321 56.5813 32.7333C56.333 34.3793 55.945 35.9653 55.0715 37.3272C52.8861 40.7338 49.8402 42.8111 45.531 42.8455V13.3721" stroke="black" stroke-width="2" stroke-linecap="round" stroke-linejoin="round"/>
<path d="M65.5474 40.8662C65.98 42.3149 65.6929 43.799 65.7623 45.2656C65.8268 46.6236 65.9034 47.9239 66.724 49.1369C67.3337 50.038 68.1063 50.3886 69.0671 50.4202C70.6782 50.4725 72.2928 50.4488 73.9054 50.4265C74.4734 50.4187 75.0209 50.475 75.5544 50.6544" stroke="black" stroke-width="2" stroke-linecap="round" stroke-linejoin="round"/>
<path d="M25.518 40.8662C25.2677 41.4686 25.3041 42.103 25.2939 42.7359C25.2697 44.2394 25.387 45.7686 25.1484 47.2381C24.8434 49.1024 23.708 50.4682 21.8897 50.4391C20.3139 50.4143 18.7372 50.4483 17.161 50.426C16.593 50.4182 16.0455 50.4745 15.512 50.6539" stroke="black" stroke-width="2" stroke-linecap="round" stroke-linejoin="round"/>
<path d="M35.3033 28.9888C35.9435 29.1212 36.3927 29.5339 36.849 29.9728C39.0354 32.0768 41.2475 34.1526 43.4382 36.2512C44.0018 36.7915 44.6275 37.1048 45.4214 37.0175" stroke="black" stroke-width="2" stroke-linecap="round" stroke-linejoin="round"/>
<path d="M58.9485 57.2529C55.2824 60.919 51.5654 64.5357 47.9768 68.276C46.5985 69.7121 44.464 69.7121 43.0856 68.276C39.4966 64.5357 35.7801 60.919 32.114 57.2529" stroke="black" stroke-width="2" stroke-linecap="round" stroke-linejoin="round"/>
<path d="M71.871 71.6606C71.8894 73.5667 71.9195 75.4732 71.9195 77.3793C71.9195 78.0127 72.0378 78.5772 72.3395 79.1529C72.5403 79.5366 72.7857 79.5676 73.1227 79.7184C75.5172 80.7908 78.0503 80.1414 80.5043 80.4037" stroke="black" stroke-width="2" stroke-linecap="round" stroke-linejoin="round"/>
<path d="M75.7752 40.5366L67.307 48.8951" stroke="black" stroke-width="2" stroke-linecap="round" stroke-linejoin="round"/>
<path d="M15.3975 40.5366L23.7555 48.8951" stroke="black" stroke-width="2" stroke-linecap="round" stroke-linejoin="round"/>
<path d="M52.678 21.2905C50.9524 22.3221 49.8019 23.9905 48.2912 25.2641C47.4929 25.9373 46.7445 26.6192 45.6392 26.6794" stroke="black" stroke-width="2" stroke-linecap="round" stroke-linejoin="round"/>
<path d="M38.6028 21.4004C40.2732 22.6493 41.6908 24.1775 43.2103 25.5947C43.8617 26.2033 44.5431 26.6083 45.4239 26.6791" stroke="black" stroke-width="2" stroke-linecap="round" stroke-linejoin="round"/>
<path d="M24.5257 49.7749L31.2342 56.371" stroke="black" stroke-width="2" stroke-linecap="round" stroke-linejoin="round"/>
<path d="M66.5368 49.7749L59.8283 56.371" stroke="black" stroke-width="2" stroke-linecap="round" stroke-linejoin="round"/>
</svg>
