<svg width="88" height="87" viewBox="0 0 88 87" fill="none" xmlns="http://www.w3.org/2000/svg">
<path d="M9.31884 22.025C3.70422 19.6703 1.55491 21.1358 1.55491 27.3187C1.55491 32.1418 1.83268 36.9852 1.48394 41.7829C1.05718 47.6467 3.47251 52.3264 5.94471 57.4123C9.10217 63.9091 13.8229 68.8051 18.9083 73.4863C21.8693 76.2123 23.2543 79.1484 22.7538 83.0842C22.6513 83.8903 22.8577 84.7363 22.9343 85.728H39.6691C39.6691 79.5564 39.7307 73.555 39.6061 67.5545C39.5864 66.6037 38.91 65.5057 38.229 64.7556C32.6332 58.5925 26.9147 52.5403 21.3621 46.3386C20.3093 45.1636 19.0624 45.0076 17.6524 44.7406C16.5827 45.7168 15.6784 47.038 14.9654 48.4978" stroke="black" stroke-width="2" stroke-linecap="round" stroke-linejoin="round"/>
<path d="M72.845 48.494L70.6219 45.063C67.3371 44.0647 65.8443 46.661 64.4804 48.2336C60.2161 53.146 55.7196 57.8352 51.2899 62.5855C49.1001 64.9355 47.8838 67.3743 48.0704 70.732C48.3444 75.6604 48.1409 80.6152 48.1409 85.725H65.3165C62.7668 77.4121 68.7945 73.411 73.6017 69.0175C79.5279 63.6007 82.0617 56.1991 85.9279 49.5665C86.4919 48.5978 86.223 47.6616 86.2301 46.7282C86.2771 40.2586 86.2555 33.7881 86.2555 27.3172C86.2555 21.1343 84.1062 19.6689 78.4915 22.0236" stroke="black" stroke-width="2" stroke-linecap="round" stroke-linejoin="round"/>
<path d="M43.9043 5.08548C42.9643 4.49751 41.9895 3.95748 41.0843 3.31358C35.3601 -0.751923 29.973 1.34569 26.6506 5.12168C23.0936 9.16368 22.9159 15.457 27.0111 19.5037C32.3987 24.8302 38.1322 29.8066 43.8841 35.088C47.5435 31.798 51.0281 28.688 54.484 25.547C56.3926 23.8117 58.2651 22.0356 60.1329 20.2557C64.4358 16.1554 65.3692 9.72768 60.7843 4.78327C56.7127 0.393939 49.5419 0.640219 43.9113 5.07139" stroke="black" stroke-width="2" stroke-linecap="round" stroke-linejoin="round"/>
<path d="M17.4358 44.6116C16.6546 39.3326 17.0771 34.0183 17.1852 28.7327C17.229 26.6026 16.9343 24.505 17.0363 22.3759C17.1749 19.4901 15.9181 18.1436 13.554 18.1436C11.3812 18.1436 9.42507 20.2609 9.70801 22.727C10.4097 28.8436 9.77945 34.9686 10.0445 41.0819C10.0915 42.1573 9.71553 43.2326 10.6974 44.2897C15.9501 49.9348 19.5907 56.8909 25.2002 62.2573" stroke="black" stroke-width="2" stroke-linecap="round" stroke-linejoin="round"/>
<path d="M70.3723 44.6116C71.1535 39.3326 70.7314 34.0183 70.6228 28.7327C70.5791 26.6026 70.8743 24.505 70.7718 22.3759C70.6308 19.4901 71.8904 18.1436 74.2545 18.1436C76.4268 18.1436 78.3835 20.2609 78.1005 22.727C77.3988 28.8436 78.0291 34.9686 77.764 41.0819C77.717 42.1573 78.093 43.2326 77.1112 44.2897C71.858 49.9348 68.2178 56.8909 62.6084 62.2573" stroke="black" stroke-width="2" stroke-linecap="round" stroke-linejoin="round"/>
<path d="M30.67 54.8459C31.8248 50.6522 31.1898 46.3649 31.0968 42.1438C31.0366 39.4179 28.9019 38.8647 24.8458 40.0241" stroke="black" stroke-width="2" stroke-linecap="round" stroke-linejoin="round"/>
<path d="M62.9613 40.0239C58.1984 38.2962 55.996 40.0093 56.5882 44.9669C56.9792 48.2418 56.0035 51.6032 57.1385 54.8457" stroke="black" stroke-width="2" stroke-linecap="round" stroke-linejoin="round"/>
<path d="M23.4353 47.7878C24.6023 44.4405 24.1088 40.9785 24.1403 37.5536C24.1558 35.7887 23.972 34.0041 24.1755 32.2637C24.7555 27.3047 22.554 25.5897 17.7906 27.3188" stroke="black" stroke-width="2" stroke-linecap="round" stroke-linejoin="round"/>
<path d="M70.0199 27.3189C65.2564 25.5916 63.1851 27.2954 63.6048 32.2651C63.9202 36.0026 63.7232 39.7898 63.6396 43.5522C63.6062 45.0406 63.8854 46.4191 64.3733 47.7878" stroke="black" stroke-width="2" stroke-linecap="round" stroke-linejoin="round"/>
</svg>
