<svg width="92" height="93" viewBox="0 0 92 93" fill="none" xmlns="http://www.w3.org/2000/svg">
<path d="M50.3176 76.1249C50.0266 74.8862 50.1018 73.7183 50.3991 72.434C51.0509 69.6147 51.1557 66.7537 50.805 63.8131C50.2769 59.3831 48.6531 55.5012 46.0811 51.936C45.5438 51.1915 45.2566 49.9475 44.6819 49.6225C41.9863 48.0894 39.9735 45.565 37.0228 44.4451C36.8836 44.3923 36.6983 44.3918 36.6052 44.2996C34.7137 42.3834 32.1078 42.7394 29.8026 42.219C26.3926 41.4488 22.9971 42.1186 19.6278 42.7525C19.4367 42.7884 19.2233 42.93 19.0657 42.88C16.6091 42.0987 15.0722 43.722 13.4038 45.014C9.43793 48.0846 5.95903 51.5877 3.80078 56.1938C2.44278 59.0936 1.65708 62.1244 1.48587 65.3787C1.03822 73.8691 4.26347 80.7256 10.6073 86.1294C13.7409 88.7969 17.454 90.3902 21.593 91.1904C25.1039 91.8694 28.545 91.8098 31.9167 91.0502C35.513 90.2403 38.8037 88.5462 41.6933 86.1702C44.7721 83.6394 47.3014 80.613 49.5848 77.3795C50.0901 76.6637 50.5727 76.0987 51.4496 75.9881C52.3265 75.8775 52.8639 75.2843 53.4299 74.7111C57.483 70.6085 61.5172 66.4869 65.5971 62.4115C71.0937 56.9222 76.6082 51.4523 82.1404 46.0015C85.8405 42.3402 88.896 38.3041 90.2234 33.1359C90.7627 31.032 90.9878 28.9164 91.0479 26.7659C91.0717 25.9366 90.7516 25.2435 90.1997 24.6445" stroke="black" stroke-width="2" stroke-linecap="round" stroke-linejoin="round"/>
<path d="M71.6736 41.7584C72.7533 41.3001 73.294 40.2671 74.0734 39.4911C78.6082 34.9747 83.1374 30.4526 87.6612 25.9246C88.0865 25.5012 88.5536 25.0793 89.0784 24.8038C90.3311 24.1461 90.9383 23.1364 90.6177 21.8186C88.2587 12.1215 82.4639 5.45667 72.7877 2.78723C63.9607 0.353018 55.8292 2.28186 49.2245 8.70423C38.8037 18.832 28.642 29.2275 18.3363 39.4789C17.4633 40.349 17.1296 41.3428 16.9399 42.467" stroke="black" stroke-width="2" stroke-linecap="round" stroke-linejoin="round"/>
<path d="M35.8917 66.5082C35.7593 68.5238 35.3582 70.4517 34.1981 72.1677C30.5465 77.5681 23.047 77.8223 19.0564 73.16C16.3176 69.959 15.8336 66.3108 17.3914 62.9847C19.1815 59.1619 22.269 57.1646 26.5579 57.1734C26.9347 57.1734 27.3121 57.1734 27.6894 57.1734" stroke="black" stroke-width="2" stroke-linecap="round" stroke-linejoin="round"/>
<path d="M76.6255 17.5728C76.3302 18.3434 75.5949 18.7144 75.0594 19.2596C70.3617 24.0394 65.649 28.8031 60.9212 33.5506C55.5639 38.9179 50.1908 44.2699 44.8018 49.6065" stroke="black" stroke-width="2" stroke-linecap="round" stroke-linejoin="round"/>
<path d="M53.9949 21.6748C54.1568 22.6113 53.6229 23.1967 53.0127 23.804C47.3893 29.4009 41.7751 35.0068 36.1702 40.6218C35.5368 41.2523 34.9252 41.8828 34.6182 42.7476" stroke="black" stroke-width="2" stroke-linecap="round" stroke-linejoin="round"/>
<path d="M25.7087 49.9604C23.9584 50.3101 22.1867 50.4154 20.462 51.0551C14.7118 53.1891 11.0418 57.3746 9.82691 63.1345C7.91116 72.2191 12.7393 80.7124 22.1944 83.1131C29.3836 84.9387 36.1697 82.2401 40.4072 75.6926C41.7913 73.5543 42.5737 71.201 42.8457 68.6305C43.4578 62.8479 41.4848 58.0706 37.2833 54.226C34.5275 51.704 31.2208 50.2315 27.4062 50.0957C26.8863 50.0773 26.3688 50.0055 25.8504 49.958" stroke="black" stroke-width="2" stroke-linecap="round" stroke-linejoin="round"/>
</svg>
